# xmcd CD database file
#
# Track frame offsets:
#	150
#	29201
#	67546
#	92593
#	130369
#	162489
#	190223
#	217184
#
# Disc length: 3268 seconds
#
# Revision: 0
# Processed by: cddbd v1.5.2PL0 Copyright (c) Steve Scherf et al.
# Submitted via: CDex 1.51
#
DISCID=730cc208
DTITLE=As Guests - As Guests
DYEAR=2004
DGENRE=Jazz
TTITLE0=Theresia
TTITLE1=EGO
TTITLE2='74
TTITLE3=Sunset Boulevard
TTITLE4=Above
TTITLE5=Chovendo Na Roseira
TTITLE6=Mark The Questionable
TTITLE7=Souvenir
EXTD=YEAR: 2004
EXTT0=
EXTT1=
EXTT2=
EXTT3=
EXTT4=
EXTT5=
EXTT6=
EXTT7=
PLAYORDER=
